STARTFONT 2.1
COMMENT
COMMENT Converted from OpenType font "ssu5p.otf" by "otf2bdf 3.0".
COMMENT
FONT -FreeType-ssu5p-Medium-R-Normal--12-120-72-72-C-34-ISO10646-1
SIZE 12 72 72
FONTBOUNDINGBOX 5 9 0 0
STARTPROPERTIES 19
FOUNDRY "FreeType"
FAMILY_NAME "ssu5p"
WEIGHT_NAME "Medium"
SLANT "R"
SETWIDTH_NAME "Normal"
ADD_STYLE_NAME ""
PIXEL_SIZE 12
POINT_SIZE 120
RESOLUTION_X 72
RESOLUTION_Y 72
SPACING "C"
AVERAGE_WIDTH 80
CHARSET_REGISTRY "ISO10646"
CHARSET_ENCODING "1"
FONT_ASCENT 10
FONT_DESCENT 2
COPYRIGHT "-FreeType-ssu5p-Medium-R-Normal--12-120-72-72-C-34-ISO10646-1"
_OTF_FONTFILE "ssu5p.otf"
_OTF_PSNAME "ssu5p"
ENDPROPERTIES
CHARS 149
STARTCHAR 0000
ENCODING 0
SWIDTH 0 0
DWIDTH 0 0
BBX 0 0 0 0
BITMAP
ENDCHAR
STARTCHAR 000A
ENCODING 10
SWIDTH 500 0
DWIDTH 6 0
BBX 0 0 0 0
BITMAP
ENDCHAR
STARTCHAR 000D
ENCODING 13
SWIDTH 500 0
DWIDTH 6 0
BBX 0 0 0 0
BITMAP
ENDCHAR
STARTCHAR 0020
ENCODING 32
SWIDTH 333 0
DWIDTH 4 0
BBX 0 0 0 0
BITMAP
ENDCHAR
STARTCHAR 0021
ENCODING 33
SWIDTH 500 0
DWIDTH 6 0
BBX 4 7 1 1
BITMAP
10
10
00
10
70
10
F0
ENDCHAR
STARTCHAR 0022
ENCODING 34
SWIDTH 500 0
DWIDTH 6 0
BBX 4 2 1 5
BITMAP
90
90
ENDCHAR
STARTCHAR 0023
ENCODING 35
SWIDTH 500 0
DWIDTH 6 0
BBX 4 8 1 0
BITMAP
90
F0
90
60
90
90
D0
90
ENDCHAR
STARTCHAR 0024
ENCODING 36
SWIDTH 500 0
DWIDTH 6 0
BBX 4 8 1 0
BITMAP
60
40
00
60
10
50
10
F0
ENDCHAR
STARTCHAR 0025
ENCODING 37
SWIDTH 500 0
DWIDTH 6 0
BBX 4 6 1 2
BITMAP
50
10
60
80
A0
80
ENDCHAR
STARTCHAR 0026
ENCODING 38
SWIDTH 500 0
DWIDTH 6 0
BBX 4 8 1 0
BITMAP
60
90
90
60
90
90
F0
90
ENDCHAR
STARTCHAR 0027
ENCODING 39
SWIDTH 500 0
DWIDTH 6 0
BBX 3 3 1 4
BITMAP
60
80
80
ENDCHAR
STARTCHAR 0028
ENCODING 40
SWIDTH 416 0
DWIDTH 5 0
BBX 3 8 1 0
BITMAP
40
80
80
00
80
E0
80
E0
ENDCHAR
STARTCHAR 0029
ENCODING 41
SWIDTH 500 0
DWIDTH 6 0
BBX 4 8 1 0
BITMAP
60
10
50
00
10
50
10
F0
ENDCHAR
STARTCHAR 002A
ENCODING 42
SWIDTH 500 0
DWIDTH 6 0
BBX 4 7 1 1
BITMAP
60
90
F0
00
90
F0
90
ENDCHAR
STARTCHAR 002B
ENCODING 43
SWIDTH 500 0
DWIDTH 6 0
BBX 4 8 1 0
BITMAP
60
90
90
60
80
E0
80
80
ENDCHAR
STARTCHAR 002C
ENCODING 44
SWIDTH 500 0
DWIDTH 6 0
BBX 4 4 1 0
BITMAP
10
10
10
F0
ENDCHAR
STARTCHAR 002D
ENCODING 45
SWIDTH 500 0
DWIDTH 6 0
BBX 2 1 2 4
BITMAP
C0
ENDCHAR
STARTCHAR 002E
ENCODING 46
SWIDTH 500 0
DWIDTH 6 0
BBX 4 8 1 0
BITMAP
60
00
00
60
90
90
90
F0
ENDCHAR
STARTCHAR 002F
ENCODING 47
SWIDTH 500 0
DWIDTH 6 0
BBX 4 6 1 2
BITMAP
10
10
60
80
80
80
ENDCHAR
STARTCHAR 0030
ENCODING 48
SWIDTH 500 0
DWIDTH 6 0
BBX 4 8 1 0
BITMAP
60
90
90
00
90
90
90
F0
ENDCHAR
STARTCHAR 0031
ENCODING 49
SWIDTH 166 0
DWIDTH 2 0
BBX 1 8 1 0
BITMAP
80
80
80
00
80
80
80
80
ENDCHAR
STARTCHAR 0032
ENCODING 50
SWIDTH 500 0
DWIDTH 6 0
BBX 4 8 1 0
BITMAP
60
50
10
60
80
A0
80
F0
ENDCHAR
STARTCHAR 0033
ENCODING 51
SWIDTH 416 0
DWIDTH 5 0
BBX 4 8 1 0
BITMAP
F0
10
10
E0
10
10
10
E0
ENDCHAR
STARTCHAR 0034
ENCODING 52
SWIDTH 500 0
DWIDTH 6 0
BBX 4 8 1 0
BITMAP
90
90
90
60
10
10
10
10
ENDCHAR
STARTCHAR 0035
ENCODING 53
SWIDTH 500 0
DWIDTH 6 0
BBX 4 8 1 0
BITMAP
60
A0
80
60
10
50
10
F0
ENDCHAR
STARTCHAR 0036
ENCODING 54
SWIDTH 500 0
DWIDTH 6 0
BBX 4 8 1 0
BITMAP
60
80
80
60
90
90
90
F0
ENDCHAR
STARTCHAR 0037
ENCODING 55
SWIDTH 500 0
DWIDTH 6 0
BBX 4 7 1 1
BITMAP
60
90
90
00
10
10
10
ENDCHAR
STARTCHAR 0038
ENCODING 56
SWIDTH 500 0
DWIDTH 6 0
BBX 4 8 1 0
BITMAP
60
90
90
60
90
90
90
F0
ENDCHAR
STARTCHAR 0039
ENCODING 57
SWIDTH 500 0
DWIDTH 6 0
BBX 4 8 1 0
BITMAP
60
90
90
60
10
50
10
F0
ENDCHAR
STARTCHAR 003A
ENCODING 58
SWIDTH 500 0
DWIDTH 6 0
BBX 2 1 2 1
BITMAP
C0
ENDCHAR
STARTCHAR 003B
ENCODING 59
SWIDTH 500 0
DWIDTH 6 0
BBX 4 6 1 0
BITMAP
40
00
10
50
10
F0
ENDCHAR
STARTCHAR 003C
ENCODING 60
SWIDTH 500 0
DWIDTH 6 0
BBX 4 5 1 0
BITMAP
60
80
80
80
F0
ENDCHAR
STARTCHAR 003D
ENCODING 61
SWIDTH 500 0
DWIDTH 6 0
BBX 4 5 1 0
BITMAP
60
00
00
00
F0
ENDCHAR
STARTCHAR 003E
ENCODING 62
SWIDTH 500 0
DWIDTH 6 0
BBX 4 7 1 1
BITMAP
60
90
90
60
10
10
10
ENDCHAR
STARTCHAR 003F
ENCODING 63
SWIDTH 500 0
DWIDTH 6 0
BBX 4 7 1 1
BITMAP
60
10
10
60
80
80
80
ENDCHAR
STARTCHAR 0040
ENCODING 64
SWIDTH 500 0
DWIDTH 6 0
BBX 4 8 1 0
BITMAP
60
50
10
60
90
F0
90
F0
ENDCHAR
STARTCHAR 0041
ENCODING 65
SWIDTH 500 0
DWIDTH 6 0
BBX 4 8 1 0
BITMAP
60
90
90
60
90
90
90
90
ENDCHAR
STARTCHAR 0042
ENCODING 66
SWIDTH 500 0
DWIDTH 6 0
BBX 4 7 1 1
BITMAP
A0
80
60
90
F0
90
F0
ENDCHAR
STARTCHAR 0043
ENCODING 67
SWIDTH 500 0
DWIDTH 6 0
BBX 4 8 1 0
BITMAP
60
80
80
60
00
00
00
F0
ENDCHAR
STARTCHAR 0044
ENCODING 68
SWIDTH 500 0
DWIDTH 6 0
BBX 4 7 1 1
BITMAP
50
10
60
90
F0
90
F0
ENDCHAR
STARTCHAR 0045
ENCODING 69
SWIDTH 416 0
DWIDTH 5 0
BBX 4 8 1 0
BITMAP
60
00
00
60
00
00
00
F0
ENDCHAR
STARTCHAR 0046
ENCODING 70
SWIDTH 416 0
DWIDTH 5 0
BBX 3 8 1 0
BITMAP
60
80
80
60
80
80
80
80
ENDCHAR
STARTCHAR 0047
ENCODING 71
SWIDTH 500 0
DWIDTH 6 0
BBX 4 8 1 0
BITMAP
60
10
10
60
00
00
00
F0
ENDCHAR
STARTCHAR 0048
ENCODING 72
SWIDTH 500 0
DWIDTH 6 0
BBX 4 8 1 0
BITMAP
90
90
90
60
90
90
90
90
ENDCHAR
STARTCHAR 0049
ENCODING 73
SWIDTH 416 0
DWIDTH 5 0
BBX 4 8 1 0
BITMAP
60
80
80
60
80
80
80
F0
ENDCHAR
STARTCHAR 004A
ENCODING 74
SWIDTH 500 0
DWIDTH 6 0
BBX 4 8 1 0
BITMAP
60
10
10
00
90
90
90
F0
ENDCHAR
STARTCHAR 004B
ENCODING 75
SWIDTH 500 0
DWIDTH 6 0
BBX 3 6 1 2
BITMAP
80
E0
60
80
80
80
ENDCHAR
STARTCHAR 004C
ENCODING 76
SWIDTH 500 0
DWIDTH 6 0
BBX 4 8 1 0
BITMAP
60
90
90
00
80
80
80
F0
ENDCHAR
STARTCHAR 004D
ENCODING 77
SWIDTH 500 0
DWIDTH 6 0
BBX 4 3 1 1
BITMAP
60
90
F0
ENDCHAR
STARTCHAR 004E
ENCODING 78
SWIDTH 500 0
DWIDTH 6 0
BBX 4 4 1 4
BITMAP
60
90
90
60
ENDCHAR
STARTCHAR 004F
ENCODING 79
SWIDTH 500 0
DWIDTH 6 0
BBX 4 8 1 0
BITMAP
60
90
F0
00
90
F0
90
F0
ENDCHAR
STARTCHAR 0050
ENCODING 80
SWIDTH 500 0
DWIDTH 6 0
BBX 4 8 1 0
BITMAP
60
B0
90
00
00
40
00
F0
ENDCHAR
STARTCHAR 0051
ENCODING 81
SWIDTH 500 0
DWIDTH 6 0
BBX 4 7 1 1
BITMAP
60
90
90
60
10
10
10
ENDCHAR
STARTCHAR 0052
ENCODING 82
SWIDTH 500 0
DWIDTH 6 0
BBX 2 5 2 1
BITMAP
40
00
C0
00
80
ENDCHAR
STARTCHAR 0053
ENCODING 83
SWIDTH 500 0
DWIDTH 6 0
BBX 4 8 1 0
BITMAP
60
80
80
60
10
10
10
F0
ENDCHAR
STARTCHAR 0054
ENCODING 84
SWIDTH 500 0
DWIDTH 6 0
BBX 4 7 1 1
BITMAP
A0
80
60
80
E0
80
F0
ENDCHAR
STARTCHAR 0055
ENCODING 85
SWIDTH 500 0
DWIDTH 6 0
BBX 4 8 1 0
BITMAP
90
90
90
00
90
90
90
F0
ENDCHAR
STARTCHAR 0056
ENCODING 86
SWIDTH 500 0
DWIDTH 6 0
BBX 4 3 1 5
BITMAP
90
90
60
ENDCHAR
STARTCHAR 0057
ENCODING 87
SWIDTH 500 0
DWIDTH 6 0
BBX 4 7 1 1
BITMAP
90
90
60
90
90
90
F0
ENDCHAR
STARTCHAR 0058
ENCODING 88
SWIDTH 500 0
DWIDTH 6 0
BBX 4 7 1 1
BITMAP
60
10
10
60
90
90
90
ENDCHAR
STARTCHAR 0059
ENCODING 89
SWIDTH 500 0
DWIDTH 6 0
BBX 4 8 1 0
BITMAP
90
B0
90
60
10
70
10
F0
ENDCHAR
STARTCHAR 005A
ENCODING 90
SWIDTH 500 0
DWIDTH 6 0
BBX 4 7 1 1
BITMAP
60
80
80
60
90
90
90
ENDCHAR
STARTCHAR 005B
ENCODING 91
SWIDTH 500 0
DWIDTH 6 0
BBX 3 4 1 4
BITMAP
60
80
80
60
ENDCHAR
STARTCHAR 005C
ENCODING 92
SWIDTH 500 0
DWIDTH 6 0
BBX 4 6 1 2
BITMAP
80
80
60
10
10
10
ENDCHAR
STARTCHAR 005D
ENCODING 93
SWIDTH 500 0
DWIDTH 6 0
BBX 3 4 2 4
BITMAP
C0
20
20
C0
ENDCHAR
STARTCHAR 005E
ENCODING 94
SWIDTH 500 0
DWIDTH 6 0
BBX 4 3 1 4
BITMAP
60
90
90
ENDCHAR
STARTCHAR 005F
ENCODING 95
SWIDTH 500 0
DWIDTH 6 0
BBX 4 1 1 0
BITMAP
F0
ENDCHAR
STARTCHAR 0060
ENCODING 96
SWIDTH 500 0
DWIDTH 6 0
BBX 3 3 2 4
BITMAP
C0
20
20
ENDCHAR
STARTCHAR 0061
ENCODING 97
SWIDTH 500 0
DWIDTH 6 0
BBX 4 8 1 0
BITMAP
60
10
10
60
90
90
90
F0
ENDCHAR
STARTCHAR 0062
ENCODING 98
SWIDTH 500 0
DWIDTH 6 0
BBX 4 7 1 1
BITMAP
80
80
60
90
90
90
F0
ENDCHAR
STARTCHAR 0063
ENCODING 99
SWIDTH 416 0
DWIDTH 5 0
BBX 4 8 1 0
BITMAP
60
80
80
00
80
80
80
F0
ENDCHAR
STARTCHAR 0064
ENCODING 100
SWIDTH 500 0
DWIDTH 6 0
BBX 4 7 1 1
BITMAP
10
10
60
90
90
90
F0
ENDCHAR
STARTCHAR 0065
ENCODING 101
SWIDTH 500 0
DWIDTH 6 0
BBX 4 8 1 0
BITMAP
60
90
90
60
80
80
80
F0
ENDCHAR
STARTCHAR 0066
ENCODING 102
SWIDTH 416 0
DWIDTH 5 0
BBX 3 8 1 0
BITMAP
60
A0
80
60
80
C0
80
80
ENDCHAR
STARTCHAR 0067
ENCODING 103
SWIDTH 500 0
DWIDTH 6 0
BBX 4 8 1 0
BITMAP
60
80
80
00
90
90
90
F0
ENDCHAR
STARTCHAR 0068
ENCODING 104
SWIDTH 500 0
DWIDTH 6 0
BBX 4 8 1 0
BITMAP
80
80
80
60
90
90
90
90
ENDCHAR
STARTCHAR 0069
ENCODING 105
SWIDTH 500 0
DWIDTH 6 0
BBX 4 8 1 0
BITMAP
60
90
90
60
10
10
10
F0
ENDCHAR
STARTCHAR 006A
ENCODING 106
SWIDTH 500 0
DWIDTH 6 0
BBX 4 8 1 0
BITMAP
10
10
10
00
90
90
90
F0
ENDCHAR
STARTCHAR 006B
ENCODING 107
SWIDTH 500 0
DWIDTH 6 0
BBX 3 6 1 2
BITMAP
80
80
60
80
80
80
ENDCHAR
STARTCHAR 006C
ENCODING 108
SWIDTH 416 0
DWIDTH 5 0
BBX 4 8 1 0
BITMAP
80
80
80
00
80
80
80
F0
ENDCHAR
STARTCHAR 006D
ENCODING 109
SWIDTH 500 0
DWIDTH 6 0
BBX 4 8 1 0
BITMAP
60
90
90
00
90
90
90
90
ENDCHAR
STARTCHAR 006E
ENCODING 110
SWIDTH 500 0
DWIDTH 6 0
BBX 4 4 1 1
BITMAP
60
90
90
90
ENDCHAR
STARTCHAR 006F
ENCODING 111
SWIDTH 500 0
DWIDTH 6 0
BBX 4 5 1 0
BITMAP
60
90
90
90
F0
ENDCHAR
STARTCHAR 0070
ENCODING 112
SWIDTH 500 0
DWIDTH 6 0
BBX 4 7 1 1
BITMAP
60
90
90
60
80
80
80
ENDCHAR
STARTCHAR 0071
ENCODING 113
SWIDTH 500 0
DWIDTH 6 0
BBX 4 7 1 1
BITMAP
60
90
90
60
10
50
10
ENDCHAR
STARTCHAR 0072
ENCODING 114
SWIDTH 500 0
DWIDTH 6 0
BBX 3 7 1 1
BITMAP
60
80
80
00
80
80
80
ENDCHAR
STARTCHAR 0073
ENCODING 115
SWIDTH 500 0
DWIDTH 6 0
BBX 4 8 1 0
BITMAP
60
80
80
60
10
10
10
F0
ENDCHAR
STARTCHAR 0074
ENCODING 116
SWIDTH 500 0
DWIDTH 6 0
BBX 4 7 1 1
BITMAP
80
80
60
80
80
80
F0
ENDCHAR
STARTCHAR 0075
ENCODING 117
SWIDTH 500 0
DWIDTH 6 0
BBX 4 4 1 0
BITMAP
90
90
90
F0
ENDCHAR
STARTCHAR 0076
ENCODING 118
SWIDTH 500 0
DWIDTH 6 0
BBX 4 8 1 0
BITMAP
90
90
90
00
90
90
90
F0
ENDCHAR
STARTCHAR 0077
ENCODING 119
SWIDTH 500 0
DWIDTH 6 0
BBX 4 8 1 0
BITMAP
90
B0
90
00
90
D0
90
F0
ENDCHAR
STARTCHAR 0078
ENCODING 120
SWIDTH 500 0
DWIDTH 6 0
BBX 3 6 1 2
BITMAP
A0
80
60
80
C0
80
ENDCHAR
STARTCHAR 0079
ENCODING 121
SWIDTH 500 0
DWIDTH 6 0
BBX 4 8 1 0
BITMAP
90
90
90
60
10
10
10
F0
ENDCHAR
STARTCHAR 007A
ENCODING 122
SWIDTH 500 0
DWIDTH 6 0
BBX 4 8 1 0
BITMAP
60
10
10
60
80
80
80
F0
ENDCHAR
STARTCHAR 007B
ENCODING 123
SWIDTH 500 0
DWIDTH 6 0
BBX 4 8 1 0
BITMAP
60
A0
80
60
00
40
00
F0
ENDCHAR
STARTCHAR 007C
ENCODING 124
SWIDTH 500 0
DWIDTH 6 0
BBX 4 6 1 1
BITMAP
20
00
00
90
D0
90
ENDCHAR
STARTCHAR 007D
ENCODING 125
SWIDTH 500 0
DWIDTH 6 0
BBX 4 8 1 0
BITMAP
60
30
10
60
00
40
00
F0
ENDCHAR
STARTCHAR 007E
ENCODING 126
SWIDTH 500 0
DWIDTH 6 0
BBX 2 1 2 8
BITMAP
C0
ENDCHAR
STARTCHAR 0080
ENCODING 128
SWIDTH 500 0
DWIDTH 6 0
BBX 4 8 1 0
BITMAP
60
90
90
00
90
90
90
F0
ENDCHAR
STARTCHAR 0081
ENCODING 129
SWIDTH 166 0
DWIDTH 2 0
BBX 1 8 1 0
BITMAP
80
80
80
00
80
80
80
80
ENDCHAR
STARTCHAR 0082
ENCODING 130
SWIDTH 500 0
DWIDTH 6 0
BBX 4 8 1 0
BITMAP
60
50
10
60
80
B0
80
F0
ENDCHAR
STARTCHAR 0083
ENCODING 131
SWIDTH 416 0
DWIDTH 5 0
BBX 4 8 1 0
BITMAP
F0
10
10
E0
10
10
10
E0
ENDCHAR
STARTCHAR 0084
ENCODING 132
SWIDTH 500 0
DWIDTH 6 0
BBX 4 8 1 0
BITMAP
90
90
90
60
10
10
10
10
ENDCHAR
STARTCHAR 0085
ENCODING 133
SWIDTH 500 0
DWIDTH 6 0
BBX 4 8 1 0
BITMAP
60
A0
80
60
10
50
10
F0
ENDCHAR
STARTCHAR 0086
ENCODING 134
SWIDTH 500 0
DWIDTH 6 0
BBX 4 8 1 0
BITMAP
60
80
80
60
90
90
90
F0
ENDCHAR
STARTCHAR 0087
ENCODING 135
SWIDTH 500 0
DWIDTH 6 0
BBX 4 7 1 1
BITMAP
60
90
90
00
10
10
10
ENDCHAR
STARTCHAR 0088
ENCODING 136
SWIDTH 500 0
DWIDTH 6 0
BBX 4 8 1 0
BITMAP
60
90
90
60
90
90
90
F0
ENDCHAR
STARTCHAR 0089
ENCODING 137
SWIDTH 500 0
DWIDTH 6 0
BBX 4 8 1 0
BITMAP
60
90
90
60
10
50
10
F0
ENDCHAR
STARTCHAR 008A
ENCODING 138
SWIDTH 500 0
DWIDTH 6 0
BBX 4 8 1 0
BITMAP
60
90
90
00
80
80
80
F0
ENDCHAR
STARTCHAR 008B
ENCODING 139
SWIDTH 500 0
DWIDTH 6 0
BBX 4 8 1 0
BITMAP
60
10
10
00
90
90
90
F0
ENDCHAR
STARTCHAR 008C
ENCODING 140
SWIDTH 500 0
DWIDTH 6 0
BBX 4 7 1 1
BITMAP
60
90
90
60
10
10
10
ENDCHAR
STARTCHAR 008D
ENCODING 141
SWIDTH 500 0
DWIDTH 6 0
BBX 4 7 1 1
BITMAP
90
90
60
90
90
90
F0
ENDCHAR
STARTCHAR 008E
ENCODING 142
SWIDTH 500 0
DWIDTH 6 0
BBX 4 7 1 1
BITMAP
60
10
10
60
90
90
90
ENDCHAR
STARTCHAR 008F
ENCODING 143
SWIDTH 416 0
DWIDTH 5 0
BBX 3 8 1 0
BITMAP
60
80
80
60
80
80
80
80
ENDCHAR
STARTCHAR 0090
ENCODING 144
SWIDTH 1000 0
DWIDTH 12 0
BBX 0 0 0 0
BITMAP
ENDCHAR
STARTCHAR 0091
ENCODING 145
SWIDTH 1000 0
DWIDTH 12 0
BBX 0 0 0 0
BITMAP
ENDCHAR
STARTCHAR 0092
ENCODING 146
SWIDTH 1000 0
DWIDTH 12 0
BBX 0 0 0 0
BITMAP
ENDCHAR
STARTCHAR 0093
ENCODING 147
SWIDTH 1000 0
DWIDTH 12 0
BBX 0 0 0 0
BITMAP
ENDCHAR
STARTCHAR 0094
ENCODING 148
SWIDTH 1000 0
DWIDTH 12 0
BBX 0 0 0 0
BITMAP
ENDCHAR
STARTCHAR 0095
ENCODING 149
SWIDTH 1000 0
DWIDTH 12 0
BBX 0 0 0 0
BITMAP
ENDCHAR
STARTCHAR 0096
ENCODING 150
SWIDTH 1000 0
DWIDTH 12 0
BBX 0 0 0 0
BITMAP
ENDCHAR
STARTCHAR 0097
ENCODING 151
SWIDTH 1000 0
DWIDTH 12 0
BBX 0 0 0 0
BITMAP
ENDCHAR
STARTCHAR 0098
ENCODING 152
SWIDTH 1000 0
DWIDTH 12 0
BBX 0 0 0 0
BITMAP
ENDCHAR
STARTCHAR 0099
ENCODING 153
SWIDTH 1000 0
DWIDTH 12 0
BBX 0 0 0 0
BITMAP
ENDCHAR
STARTCHAR 009A
ENCODING 154
SWIDTH 1000 0
DWIDTH 12 0
BBX 0 0 0 0
BITMAP
ENDCHAR
STARTCHAR 009B
ENCODING 155
SWIDTH 1000 0
DWIDTH 12 0
BBX 0 0 0 0
BITMAP
ENDCHAR
STARTCHAR 009C
ENCODING 156
SWIDTH 1000 0
DWIDTH 12 0
BBX 0 0 0 0
BITMAP
ENDCHAR
STARTCHAR 009D
ENCODING 157
SWIDTH 1000 0
DWIDTH 12 0
BBX 0 0 0 0
BITMAP
ENDCHAR
STARTCHAR 009E
ENCODING 158
SWIDTH 1000 0
DWIDTH 12 0
BBX 0 0 0 0
BITMAP
ENDCHAR
STARTCHAR 009F
ENCODING 159
SWIDTH 1000 0
DWIDTH 12 0
BBX 0 0 0 0
BITMAP
ENDCHAR
STARTCHAR 00A0
ENCODING 160
SWIDTH 750 0
DWIDTH 9 0
BBX 0 0 0 0
BITMAP
ENDCHAR
STARTCHAR 00A2
ENCODING 162
SWIDTH 500 0
DWIDTH 6 0
BBX 4 8 1 0
BITMAP
60
90
90
60
90
90
90
F0
ENDCHAR
STARTCHAR 00A3
ENCODING 163
SWIDTH 500 0
DWIDTH 6 0
BBX 4 8 1 0
BITMAP
60
B0
90
60
90
F0
90
F0
ENDCHAR
STARTCHAR 00A4
ENCODING 164
SWIDTH 500 0
DWIDTH 6 0
BBX 4 3 1 1
BITMAP
60
90
F0
ENDCHAR
STARTCHAR 00A5
ENCODING 165
SWIDTH 500 0
DWIDTH 6 0
BBX 4 8 1 0
BITMAP
60
90
90
60
10
10
10
F0
ENDCHAR
STARTCHAR 00A6
ENCODING 166
SWIDTH 416 0
DWIDTH 5 0
BBX 4 8 1 0
BITMAP
60
80
80
60
80
80
80
F0
ENDCHAR
STARTCHAR 2000
ENCODING 8192
SWIDTH 416 0
DWIDTH 5 0
BBX 0 0 0 0
BITMAP
ENDCHAR
STARTCHAR 2001
ENCODING 8193
SWIDTH 833 0
DWIDTH 10 0
BBX 0 0 0 0
BITMAP
ENDCHAR
STARTCHAR 2002
ENCODING 8194
SWIDTH 416 0
DWIDTH 5 0
BBX 0 0 0 0
BITMAP
ENDCHAR
STARTCHAR 2003
ENCODING 8195
SWIDTH 833 0
DWIDTH 10 0
BBX 0 0 0 0
BITMAP
ENDCHAR
STARTCHAR 2004
ENCODING 8196
SWIDTH 250 0
DWIDTH 3 0
BBX 0 0 0 0
BITMAP
ENDCHAR
STARTCHAR 2005
ENCODING 8197
SWIDTH 250 0
DWIDTH 3 0
BBX 0 0 0 0
BITMAP
ENDCHAR
STARTCHAR 2006
ENCODING 8198
SWIDTH 166 0
DWIDTH 2 0
BBX 0 0 0 0
BITMAP
ENDCHAR
STARTCHAR 2007
ENCODING 8199
SWIDTH 166 0
DWIDTH 2 0
BBX 0 0 0 0
BITMAP
ENDCHAR
STARTCHAR 2008
ENCODING 8200
SWIDTH 83 0
DWIDTH 1 0
BBX 0 0 0 0
BITMAP
ENDCHAR
STARTCHAR 2009
ENCODING 8201
SWIDTH 166 0
DWIDTH 2 0
BBX 0 0 0 0
BITMAP
ENDCHAR
STARTCHAR 200A
ENCODING 8202
SWIDTH 83 0
DWIDTH 1 0
BBX 0 0 0 0
BITMAP
ENDCHAR
STARTCHAR 202F
ENCODING 8239
SWIDTH 166 0
DWIDTH 2 0
BBX 0 0 0 0
BITMAP
ENDCHAR
STARTCHAR 205F
ENCODING 8287
SWIDTH 250 0
DWIDTH 3 0
BBX 0 0 0 0
BITMAP
ENDCHAR
ENDFONT
